HIERARCHY
ROOT Hips
{
	OFFSET -0.001795 -0.223333 0.028219
	CHANNELS 6 Xposition Yposition Zposition Zrotation Yrotation Xrotation 
	JOINT LeftUpLeg
	{
		OFFSET 0.069520 -0.091406 -0.006815
		CHANNELS 3 Zrotation Yrotation Xrotation
		JOINT LeftLeg
		{
			OFFSET 0.034277 -0.375199 -0.004496
			CHANNELS 3 Zrotation Yrotation Xrotation
			JOINT LeftFoot
			{
				OFFSET -0.013596 -0.397961 -0.043693
				CHANNELS 3 Zrotation Yrotation Xrotation
				JOINT LeftToe
				{
					OFFSET 0.026358 -0.055791 0.119288
					CHANNELS 3 Zrotation Yrotation Xrotation
					End Site
					{
						OFFSET 0.000000 0.000000 0.000000
					}
				}
			}
		}
	}
	JOINT RightUpLeg
	{
		OFFSET -0.067670 -0.090522 -0.004320
		CHANNELS 3 Zrotation Yrotation Xrotation
		JOINT RightLeg
		{
			OFFSET -0.038290 -0.382569 -0.008850
			CHANNELS 3 Zrotation Yrotation Xrotation
			JOINT RightFoot
			{
				OFFSET 0.015774 -0.398415 -0.042312
				CHANNELS 3 Zrotation Yrotation Xrotation
				JOINT RightToe
				{
					OFFSET -0.025372 -0.048144 0.123348
					CHANNELS 3 Zrotation Yrotation Xrotation
					End Site
					{
						OFFSET 0.000000 0.000000 0.000000
					}
				}
			}
		}
	}
	JOINT Spine
	{
		OFFSET -0.002533 0.108963 -0.026696
		CHANNELS 3 Zrotation Yrotation Xrotation
		JOINT Spine1
		{
			OFFSET 0.005487 0.135180 0.001092
			CHANNELS 3 Zrotation Yrotation Xrotation
			JOINT Spine2
			{
				OFFSET 0.001457 0.052922 0.025425
				CHANNELS 3 Zrotation Yrotation Xrotation
				JOINT Neck
				{
					OFFSET -0.002778 0.213870 -0.042857
					CHANNELS 3 Zrotation Yrotation Xrotation
					JOINT Head
					{
						OFFSET 0.005152 0.064970 0.051349
						CHANNELS 3 Zrotation Yrotation Xrotation
						End Site
						{
							OFFSET 0.000000 0.000000 0.000000
						}
					}
				}
				JOINT LeftShoulder
				{
					OFFSET 0.078845 0.121749 -0.034090
					CHANNELS 3 Zrotation Yrotation Xrotation
					JOINT LeftArm
					{
						OFFSET 0.090977 0.030469 -0.008868
						CHANNELS 3 Zrotation Yrotation Xrotation
						JOINT LeftForeArm
						{
							OFFSET 0.259612 -0.012772 -0.027456
							CHANNELS 3 Zrotation Yrotation Xrotation
							JOINT LeftHand
							{
								OFFSET 0.249234 0.008986 -0.001171
								CHANNELS 3 Zrotation Yrotation Xrotation
								End Site
								{
									OFFSET 0.000000 0.000000 0.000000
								}
							}
						}
					}
				}
				JOINT RightShoulder
				{
					OFFSET -0.081759 0.118833 -0.038615
					CHANNELS 3 Zrotation Yrotation Xrotation
					JOINT RightArm
					{
						OFFSET -0.096012 0.032551 -0.009143
						CHANNELS 3 Zrotation Yrotation Xrotation
						JOINT RightForeArm
						{
							OFFSET -0.253742 -0.013329 -0.021401
							CHANNELS 3 Zrotation Yrotation Xrotation
							JOINT RightHand
							{
								OFFSET -0.255298 0.007772 -0.005559
								CHANNELS 3 Zrotation Yrotation Xrotation
								End Site
								{
									OFFSET 0.000000 0.000000 0.000000
								}
							}
						}
					}
				}
			}
		}
	}
}
MOTION
Frames: 9
Frame Time: 0.050000
0.000000 0.945349 0.000000 -0.621150 -4.020403 4.096353 7.299873 -0.413886 -14.123142 -3.043892 0.375091 14.150002 3.766850 9.184249 5.736544 0.000000 0.000000 0.000000 -4.729687 0.700726 -8.477345 1.150051 0.187448 8.632162 -2.163126 -6.819017 3.306875 0.000000 0.000000 0.000000 6.472149 -1.068322 9.907608 -6.072189 1.943075 -25.837831 -0.942361 7.059744 31.111895 8.941565 -2.495953 -29.087847 0.000000 0.000000 0.000000 -5.546896 0.708419 -0.811820 -65.753111 -1.215459 -10.679505 -8.467526 -40.537119 5.480495 0.000000 0.000000 0.000000 13.129715 -12.142976 -6.014492 66.341032 -0.149500 -8.992460 10.193163 46.584795 8.362777 0.000000 0.000000 0.000000 
0.005472 0.945746 0.007287 -0.951604 -4.035079 4.764549 7.456591 -0.383423 -12.740871 -3.237384 0.403894 11.736675 4.021067 9.703289 6.011307 0.000000 0.000000 0.000000 -5.225386 0.673970 -8.123058 1.261886 0.120682 7.336347 -1.815951 -6.709535 5.082517 0.000000 0.000000 0.000000 6.676119 -0.969297 8.446663 -5.758465 1.866577 -25.878462 -1.469656 7.403911 31.031714 8.448422 -1.984821 -30.291386 0.000000 0.000000 0.000000 -5.323604 1.837893 -1.271448 -65.815860 -0.362678 -11.222145 -8.624863 -38.028088 5.115329 0.000000 0.000000 0.000000 12.902544 -12.113406 -5.934431 67.583652 -1.184274 -9.636514 8.771243 45.233824 7.512780 0.000000 0.000000 0.000000 
0.011990 0.945336 0.014564 -0.701319 -3.259570 4.457734 6.865678 -0.428538 -11.404321 -2.934105 0.312650 10.574964 3.990311 9.792784 6.535693 0.000000 0.000000 0.000000 -5.977588 0.583982 -7.025149 1.734348 0.042508 7.562348 -2.012143 -7.089861 5.100018 0.000000 0.000000 0.000000 6.707636 -0.887574 7.580175 -6.432236 2.040635 -25.575073 -1.778503 6.529150 31.935753 8.761361 -2.002212 -32.145153 0.000000 0.000000 0.000000 -5.144140 1.774868 -1.184678 -67.210951 -0.791223 -11.260724 -5.825289 -35.964367 3.994078 0.000000 0.000000 0.000000 14.105437 -12.509617 -6.340176 66.149974 -0.925999 -9.565695 8.705175 42.977189 6.972910 0.000000 0.000000 0.000000 
0.019402 0.944973 0.022125 -0.697413 -3.396439 4.480006 6.217152 -0.443832 -10.112822 -2.875985 0.302916 9.764952 4.114995 10.047801 6.738530 0.000000 0.000000 0.000000 -6.751831 0.570582 -6.971211 1.524511 0.088019 7.863755 -1.890529 -6.915974 5.339131 0.000000 0.000000 0.000000 6.685342 -0.851593 7.234815 -6.580433 2.045598 -26.615021 -1.958569 6.738400 33.061160 8.593834 -1.925229 -32.157632 0.000000 0.000000 0.000000 -5.684695 2.081064 -1.365089 -67.081673 -0.106730 -11.748688 -4.618738 -35.334555 3.558286 0.000000 0.000000 0.000000 13.602542 -13.134155 -6.577030 66.641222 -1.743423 -10.137317 9.692073 41.455079 7.076463 0.000000 0.000000 0.000000 
0.027275 0.944623 0.029046 -0.938982 -3.189922 4.353627 6.044702 -0.440764 -9.593886 -2.874691 0.298215 9.188516 4.320307 10.444929 6.826037 0.000000 0.000000 0.000000 -7.094652 0.550947 -6.763620 1.188164 0.176403 8.834967 -1.901945 -7.008480 5.572489 0.000000 0.000000 0.000000 6.424380 -0.812995 7.060924 -6.274311 1.986808 -26.285490 -2.197775 6.460573 32.718345 8.839025 -2.077293 -32.189165 0.000000 0.000000 0.000000 -6.448535 2.018748 -1.411607 -67.314671 0.437326 -12.046040 -3.002520 -33.752164 2.894620 0.000000 0.000000 0.000000 13.675209 -13.244108 -6.672724 66.064503 -2.475166 -10.472472 9.623314 40.292978 6.739380 0.000000 0.000000 0.000000 
0.034926 0.944095 0.035052 -1.114082 -3.111314 4.451410 5.766379 -0.453675 -9.329300 -3.091436 0.339246 8.967364 4.465427 10.669307 6.579223 0.000000 0.000000 0.000000 -7.523914 0.566254 -7.348438 1.083381 0.266769 10.781321 -1.564187 -6.125464 5.181899 0.000000 0.000000 0.000000 6.297362 -0.818746 7.200701 -6.649529 2.058081 -26.667115 -2.152439 5.804618 32.766840 8.740242 -2.045813 -32.765583 0.000000 0.000000 0.000000 -6.787670 2.262579 -1.497777 -67.097992 1.462612 -12.493131 -1.469241 -32.250628 2.346928 0.000000 0.000000 0.000000 13.559334 -13.384324 -6.831038 66.006858 -3.718393 -11.186313 9.824433 40.041093 6.643031 0.000000 0.000000 0.000000 
0.041625 0.943371 0.039996 -1.285482 -3.173145 4.449633 5.610412 -0.458350 -9.211596 -3.498593 0.421001 9.038505 4.652686 10.955475 6.285116 0.000000 0.000000 0.000000 -7.886525 0.604943 -8.652507 1.430271 0.311083 13.823443 -1.613535 -6.107014 4.824809 0.000000 0.000000 0.000000 6.001385 -0.834951 7.654569 -6.478526 2.027616 -26.459081 -2.374000 5.234162 32.339958 9.073359 -2.309492 -32.797922 0.000000 0.000000 0.000000 -7.456827 2.498470 -1.615211 -67.005608 2.684915 -13.032164 -0.663342 -30.667706 2.022203 0.000000 0.000000 0.000000 13.743838 -13.579697 -7.067379 65.308368 -5.151692 -11.885335 11.301889 40.973367 7.253514 0.000000 0.000000 0.000000 
0.046840 0.942717 0.044146 -1.490594 -3.273357 4.494317 5.585460 -0.474551 -9.641254 -4.033899 0.542258 10.260175 4.797500 11.035589 5.167332 0.000000 0.000000 0.000000 -8.096338 0.671259 -10.711622 1.816964 0.364124 17.659443 -1.744714 -6.215633 4.306115 0.000000 0.000000 0.000000 5.892368 -0.886530 8.332852 -6.573694 2.044990 -26.538598 -2.425538 4.727568 32.130035 8.754616 -2.124717 -33.499869 0.000000 0.000000 0.000000 -7.292006 2.440059 -1.522536 -66.709628 3.834641 -13.514330 -1.126552 -29.431686 2.057389 0.000000 0.000000 0.000000 13.403467 -13.608220 -7.116231 65.204483 -6.338498 -12.523923 13.552475 42.157824 8.273634 0.000000 0.000000 0.000000 
0.050387 0.941317 0.047685 -1.767623 -3.452311 4.540599 5.783267 -0.462262 -9.800810 -4.614719 0.686819 11.269438 5.003387 11.278770 4.318910 0.000000 0.000000 0.000000 -7.748367 0.757472 -12.369189 2.067620 0.401577 20.242768 -2.238988 -6.820668 2.865535 0.000000 0.000000 0.000000 5.799798 -0.946551 9.113949 -6.227540 1.971764 -26.221616 -2.708487 4.677896 31.813487 8.852118 -2.120072 -34.019213 0.000000 0.000000 0.000000 -7.427232 2.418372 -1.513271 -65.992422 4.771390 -13.843917 -2.010491 -29.146790 2.244189 0.000000 0.000000 0.000000 13.809518 -13.799874 -7.321964 64.099933 -7.601801 -12.987734 16.684272 44.225899 9.980845 0.000000 0.000000 0.000000 
